<?xml version="1.0" encoding="UTF-8" standalone="no"?>

<!-- Created with Inkscape (http://www.inkscape.org/) -->

<svg
	width="1600px"
	height="900px"
	viewbox="0 0 1600 900"
	version="1.1"
	id="svg5"
	xmlns="http://www.w3.org/2000/svg"
	xmlns:svg="http://www.w3.org/2000/svg">
	<g id="pathwalk" style="fill:black;stroke:none">
		<rect x="0" y="850" width="1600" height="50"/>
		<rect x="0" y="700" width="1600" height="18"/>
		<rect x="116" y="690" width="14" height="200"/>
		<rect x="383" y="690" width="14" height="200"/>
		<rect x="650" y="690" width="14" height="200"/>
		<rect x="916" y="690" width="14" height="200"/>
		<rect x="1183" y="690" width="14" height="200"/>
		<rect x="1450" y="690" width="14" height="200"/>
	</g>
	<g id="building-1" style="fill:black;stroke:none">
		<path d="
			M 870,400 h 38 v -26 h 2 v 26 h 30 v 10 h 100 v 40
			h -16 v -10 h -14 v 10 h -6 v -10 h -14 v 10 h -6 v -10 h -14 v 10 h -6 v -10 h -14 v 12 h 90 v 20
			h -16 v -10 h -14 v 10 h -6 v -10 h -14 v 10 h -6 v -10 h -14 v 10 h -6 v -10 h -14 v 12 h 90 v 20
			h -16 v -10 h -14 v 10 h -6 v -10 h -14 v 10 h -6 v -10 h -14 v 10 h -6 v -10 h -14 v 12 h 90 v 20
			h -16 v -10 h -14 v 10 h -6 v -10 h -14 v 10 h -6 v -10 h -14 v 10 h -6 v -10 h -14 v 12 h 90 v 20
			h -16 v -10 h -14 v 10 h -6 v -10 h -14 v 10 h -6 v -10 h -14 v 10 h -6 v -10 h -14 v 12 h 90 v 20
			h -16 v -10 h -14 v 10 h -6 v -10 h -14 v 10 h -6 v -10 h -14 v 10 h -6 v -10 h -14 v 12 h 90 v 20
			h -16 v -10 h -14 v 10 h -6 v -10 h -14 v 10 h -6 v -10 h -14 v 10 h -6 v -10 h -14 v 12 h 90 v 20
			h -16 v -10 h -14 v 10 h -6 v -10 h -14 v 10 h -6 v -10 h -14 v 10 h -6 v -10 h -14 v 12 h 90 v 20
			h -16 v -10 h -14 v 10 h -6 v -10 h -14 v 10 h -6 v -10 h -14 v 10 h -6 v -10 h -14 v 12 h 90 v 20
			h -16 v -10 h -14 v 10 h -6 v -10 h -14 v 10 h -6 v -10 h -14 v 10 h -6 v -10 h -14 v 12 h 90 v 20
			h -16 v -10 h -14 v 10 h -6 v -10 h -14 v 10 h -6 v -10 h -14 v 10 h -6 v -10 h -14 v 12 h 90
			V 694 H 936 v -10 h -26 v 10 H 896 V 590 L 870,588"/>
		<path d="M 896,724 H 910 V 844 H 896"/>
		<path d="M 936,724 H 1040 V 844 H 936"/>
	</g>
	<g id="building-2" style="fill:black;stroke:none">
		<path d="M 760,600 l 50,-12 80,8 V 694 h -4 v -19 l -70,-7 v -20 l 70,7 v -10 l -35,-26 5,-10 30,23 v -20 l -30,-3 -5,10 -35,19 v -12 l 30,-17 l -32,-3 V 694 H 760"/>
		<path d="M 760,724 h 54 v 8 l 72,7 V 724 h 4 V 844 H 760"/>
	</g>
	<g id="windturbine" style="fill:black;stroke:none">
		<path d="M 550,694 v -200 l -30,-10 0,-6 8,-14 25,-25 10,0 25,25 0,10 -18,20 v 200"/>
	</g>
</svg>